<?xml version="1.0" encoding="utf-8"?>
<!-- Generator: Adobe Illustrator 23.0.0, SVG Export Plug-In . SVG Version: 6.00 Build 0)  -->
<svg version="1.1" id="Capa_1" xmlns="http://www.w3.org/2000/svg" xmlns:xlink="http://www.w3.org/1999/xlink" x="0px" y="0px"
	 viewBox="0 0 512 512" style="enable-background:new 0 0 512 512;" xml:space="preserve">
<style type="text/css">
	.st0{fill:#293D7C;}
	.st1{fill:#FFFFFF;}
	.st2{fill:#D9EAFC;}
	.st3{fill:#FFAF10;}
	.st4{fill:#FF9518;}
	.st5{fill:#5DC1D8;}
	.st6{fill:#C3DDF4;}
	.st7{fill:#AEC1ED;}
</style>
<path class="st0" d="M505.58,76.8H5.8c-3.19,0-5.8,3.08-5.8,6.84v389.49c0,3.77,2.61,6.84,5.8,6.84h354.15
	c50.68,0.07,101.37,0.15,152.05,0.22c-0.21-132.19-0.41-264.37-0.62-396.56C509.45,81.37,507.52,79.09,505.58,76.8z"/>
<path class="st1" d="M25.44,440.9c0,2.46,1.56,4.46,3.48,4.46h331.03c42.27,0.15,84.54,0.29,126.8,0.44
	c-0.27-54.52-0.54-109.04-0.82-163.56l0,0V149.8H25.44V440.9z"/>
<path class="st2" d="M47.98,440.9V149.8H25.44V440.9c0,2.46,1.56,4.46,3.48,4.46h22.54C49.55,445.36,47.98,443.35,47.98,440.9z"/>
<path class="st3" d="M482.46,114.77H28.92c-1.91,0-3.48,2.01-3.48,4.47v32.03h460.5v-32.03
	C485.94,116.78,484.37,114.77,482.46,114.77z"/>
<path class="st4" d="M51.46,114.77H28.92c-1.91,0-3.48,2.01-3.48,4.47v32.03h22.54v-32.03C47.98,116.78,49.55,114.77,51.46,114.77z"
	/>
<path class="st5" d="M271.46,220.22H154.46c-5.76,0-10.43-1.68-10.43-3.76s4.67-3.76,10.43-3.76h117.01
	c0.17,0.19,1.36,1.56,1.34,3.82C272.78,218.71,271.64,220.02,271.46,220.22z"/>
<path class="st6" d="M173.71,262.43v-77.94c0-2.41-1.53-4.38-3.41-4.38h-67.75c-1.87,0-3.41,1.97-3.41,4.38v77.94H173.71z"/>
<path class="st7" d="M102.55,209.06h67.75c1.87,0,3.41,1.97,3.41,4.38v-28.95c0-2.41-1.53-4.38-3.41-4.38h-67.75
	c-1.87,0-3.41,1.97-3.41,4.38v28.95C99.14,211.03,100.68,209.06,102.55,209.06z"/>
<path class="st5" d="M268.55,228.53l0.04-14.55c0-0.72,1.31-1.29,2.93-1.28c1.62,0.01,2.93,0.6,2.92,1.31l-0.04,14.55
	c0,0.72-1.31,1.29-2.93,1.28C269.86,229.83,268.55,229.24,268.55,228.53z"/>
<path class="st5" d="M158.42,297.86c-0.01-2.26,0.75-3.63,0.86-3.82h75.14c3.7,0,6.7,1.68,6.7,3.76s-3,3.76-6.7,3.76h-75.14
	C159.17,301.36,158.44,300.05,158.42,297.86z"/>
<path class="st5" d="M158.34,337.99l0.12-40.37c0.01-1.99,1.32-3.59,2.94-3.58c1.62,0.01,2.92,1.63,2.92,3.61l-0.12,40.37
	c-0.01,1.99-1.32,3.59-2.94,3.58C159.64,341.6,158.33,339.98,158.34,337.99z"/>
<path class="st5" d="M378.77,301.56h-75.14c-3.7,0-6.7-1.68-6.7-3.76c0-2.08,3-3.76,6.7-3.76h75.14c0.11,0.19,0.87,1.56,0.86,3.82
	C379.62,300.05,378.89,301.36,378.77,301.56z"/>
<path class="st5" d="M376.8,341.61c-1.62,0.01-2.93-1.6-2.94-3.58l-0.12-40.37c-0.01-1.99,1.3-3.6,2.92-3.61
	c1.62-0.01,2.93,1.6,2.94,3.58l0.12,40.37C379.73,339.98,378.42,341.6,376.8,341.61z"/>
<g>
	<path class="st6" d="M192.81,421.77v-77.94c0-2.41-1.53-4.38-3.41-4.38h-67.75c-1.87,0-3.41,1.97-3.41,4.38v77.94H192.81z"/>
	<path class="st7" d="M121.65,368.39h67.75c1.87,0,3.41,1.97,3.41,4.38v-28.95c0-2.41-1.53-4.38-3.41-4.38h-67.75
		c-1.87,0-3.41,1.97-3.41,4.38v28.95C118.24,370.36,119.77,368.39,121.65,368.39z"/>
</g>
<path class="st6" d="M306.18,307.07v-77.94c0-2.41-1.53-4.38-3.41-4.38h-67.75c-1.87,0-3.41,1.97-3.41,4.38v77.94H306.18z"/>
<path class="st7" d="M235.02,253.7h67.75c1.87,0,3.41,1.97,3.41,4.38v-28.95c0-2.41-1.53-4.38-3.41-4.38h-67.75
	c-1.87,0-3.41,1.97-3.41,4.38v28.95C231.61,255.67,233.14,253.7,235.02,253.7z"/>
<g>
	<path class="st6" d="M415.46,421.77v-77.94c0-2.41-1.53-4.38-3.41-4.38H344.3c-1.87,0-3.41,1.97-3.41,4.38v77.94H415.46z"/>
	<path class="st7" d="M344.3,368.39h67.75c1.87,0,3.41,1.97,3.41,4.38v-28.95c0-2.41-1.53-4.38-3.41-4.38H344.3
		c-1.87,0-3.41,1.97-3.41,4.38v28.95C340.89,370.36,342.43,368.39,344.3,368.39z"/>
</g>
</svg>
