<?xml version="1.0" encoding="utf-8"?>
<!-- Generator: Adobe Illustrator 23.0.0, SVG Export Plug-In . SVG Version: 6.00 Build 0)  -->
<svg version="1.1" id="Capa_1" xmlns="http://www.w3.org/2000/svg" xmlns:xlink="http://www.w3.org/1999/xlink" x="0px" y="0px"
	 viewBox="0 0 512 512" style="enable-background:new 0 0 512 512;" xml:space="preserve">
<style type="text/css">
	.st0{fill:#445EA0;}
	.st1{fill:#2E4C89;}
	.st2{fill:#293D7C;}
	.st3{fill:#1A2B63;}
	.st4{fill:#FFFFFF;}
	.st5{fill:#D9EAFC;}
	.st6{fill:#C3DDF4;}
	.st7{fill:#AEC1ED;}
	.st8{fill:#FFAF10;}
	.st9{fill:#FF9518;}
	.st10{fill:#5DC1D8;}
</style>
<rect x="216.37" y="376.99" class="st0" width="78.71" height="41.23"/>
<rect x="216.37" y="376.99" class="st1" width="19.84" height="41.23"/>
<path class="st2" d="M347.5,417.23h-189.3c-2.81,0-5.1,2.3-5.1,5.1v25.57c0,2.81,2.3,5.1,5.1,5.1h189.3V417.23L347.5,417.23z"/>
<path class="st3" d="M172.95,447.9v-25.57c0-2.81,2.3-5.1,5.1-5.1h-19.84c-2.81,0-5.1,2.3-5.1,5.1v25.57c0,2.81,2.3,5.1,5.1,5.1
	h19.84C175.25,453,172.95,450.7,172.95,447.9z"/>
<path class="st2" d="M475.7,77.43H35.75c-2.81,0-5.1,2.3-5.1,5.1v290.36c0,2.81,2.3,5.1,5.1,5.1H347.5
	c44.62,0.06,89.23,0.11,133.85,0.17c-0.18-98.54-0.36-197.09-0.55-295.63C479.1,80.83,477.4,79.13,475.7,77.43z"/>
<path class="st4" d="M53.04,326.98c0,1.68,1.38,3.06,3.06,3.06h291.4c37.21,0.1,74.42,0.2,111.62,0.3
	c-0.24-37.37-0.48-74.74-0.72-112.11l0,0v-90.77H53.04V326.98z"/>
<path class="st5" d="M72.89,326.98V127.46H53.04v199.52c0,1.68,1.38,3.06,3.06,3.06h19.84C74.26,330.04,72.89,328.66,72.89,326.98z"
	/>
<circle class="st0" cx="255.73" cy="353.92" r="13.77"/>
<path class="st6" d="M401.34,241.61h-53.42c-1.65,0-3,1.35-3,3v59.64c0,1.65,1.35,3,3,3h53.42V241.61z"/>
<path class="st7" d="M364.76,304.25v-59.64c0-1.65,1.35-3,3-3h-19.84c-1.65,0-3,1.35-3,3v59.64c0,1.65,1.35,3,3,3h19.84
	C366.11,307.25,364.76,305.9,364.76,304.25z"/>
<path class="st6" d="M401.34,225.14c-0.07-24.1-0.14-48.19-0.22-72.29c0-2.75-2.25-5-5-5H115.33c-2.75,0-5,2.25-5,5v66.52
	c0,2.75,2.25,5,5,5C210.67,224.63,306,224.88,401.34,225.14z"/>
<path class="st7" d="M130.17,219.37v-66.52c0-2.75,2.25-5,5-5h-19.84c-2.75,0-5,2.25-5,5v66.52c0,2.75,2.25,5,5,5h19.84
	C132.42,224.37,130.17,222.12,130.17,219.37z"/>
<path class="st8" d="M455.35,103.45H56.11c-1.68,0-3.06,1.38-3.06,3.06v21.95h405.36v-21.95
	C458.41,104.82,457.03,103.45,455.35,103.45z"/>
<path class="st9" d="M75.95,103.45H56.11c-1.68,0-3.06,1.38-3.06,3.06v21.95h19.84v-21.95C72.89,104.82,74.26,103.45,75.95,103.45z"
	/>
<g>
	<path class="st10" d="M231.81,257.44h-111.4c-5.48,0-9.93-3.36-9.93-7.5s4.44-7.5,9.93-7.5h111.4c5.48,0,9.93,3.36,9.93,7.5
		S237.3,257.44,231.81,257.44z"/>
	<path class="st10" d="M231.81,281.93h-111.4c-5.48,0-9.93-3.36-9.93-7.5s4.44-7.5,9.93-7.5h111.4c5.48,0,9.93,3.36,9.93,7.5
		C241.74,278.57,237.3,281.93,231.81,281.93z"/>
	<path class="st10" d="M231.81,306.42h-111.4c-5.48,0-9.93-3.36-9.93-7.5s4.44-7.5,9.93-7.5h111.4c5.48,0,9.93,3.36,9.93,7.5
		S237.3,306.42,231.81,306.42z"/>
	<path class="st10" d="M319.24,257.44H261.9c-5.48,0-9.93-3.36-9.93-7.5s4.44-7.5,9.93-7.5h57.34c5.48,0,9.93,3.36,9.93,7.5
		S324.73,257.44,319.24,257.44z"/>
	<path class="st10" d="M319.24,281.93H261.9c-5.48,0-9.93-3.36-9.93-7.5s4.44-7.5,9.93-7.5h57.34c5.48,0,9.93,3.36,9.93,7.5
		C329.17,278.57,324.73,281.93,319.24,281.93z"/>
	<path class="st10" d="M319.24,306.42H261.9c-5.48,0-9.93-3.36-9.93-7.5s4.44-7.5,9.93-7.5h57.34c5.48,0,9.93,3.36,9.93,7.5
		S324.73,306.42,319.24,306.42z"/>
</g>
</svg>
