<?xml version="1.0" encoding="utf-8"?>
<!-- Generator: Adobe Illustrator 23.0.0, SVG Export Plug-In . SVG Version: 6.00 Build 0)  -->
<svg version="1.1" id="Layer_1" xmlns="http://www.w3.org/2000/svg" xmlns:xlink="http://www.w3.org/1999/xlink" x="0px" y="0px"
	 viewBox="0 0 100 100" style="enable-background:new 0 0 100 100;" xml:space="preserve">
<style type="text/css">
	.st0{fill:none;stroke:#FFFFFF;stroke-width:5;}
</style>
<g>
	<path class="st0" d="M17.44,82.19c1.24-6.22,2.85-15.89,3.52-27.81c1.09-19.22-1.12-29.25,1.97-30.29
		c1.29-0.44,3.2,0.83,21.78,29.04c8.2,12.45,16.67,25.84,21.41,33.4c2.39,3.81,3.84,6.14,3.84,6.14"/>
</g>
<path class="st0" d="M10.04,55.38c0,0,114.79,8.42,64.9-18.35C25.03,10.27,33.48,22.08,33.48,22.08l18.83,26.46"/>
<ellipse transform="matrix(0.9494 -0.3141 0.3141 0.9494 -13.0382 18.194)" class="st0" cx="49.93" cy="49.55" rx="47.26" ry="46.82"/>
</svg>
