<?xml version="1.0" encoding="utf-8"?>
<!-- Generator: Adobe Illustrator 23.0.0, SVG Export Plug-In . SVG Version: 6.00 Build 0)  -->
<svg version="1.1" id="Layer_1" xmlns="http://www.w3.org/2000/svg" xmlns:xlink="http://www.w3.org/1999/xlink" x="0px" y="0px"
	 viewBox="0 0 264 280" style="enable-background:new 0 0 264 280;" xml:space="preserve">
<style type="text/css">
	.st0{fill-rule:evenodd;clip-rule:evenodd;fill:#E6E6E6;}
	.st1{filter:url(#Adobe_OpacityMaskFilter);}
	.st2{fill-rule:evenodd;clip-rule:evenodd;fill:#FFFFFF;}
	.st3{mask:url(#mask-2_1_);}
	.st4{fill-rule:evenodd;clip-rule:evenodd;fill:#65C9FF;}
	.st5{filter:url(#Adobe_OpacityMaskFilter_1_);}
	.st6{mask:url(#mask-4_1_);}
	.st7{fill-rule:evenodd;clip-rule:evenodd;fill:#D0C6AC;}
	.st8{filter:url(#Adobe_OpacityMaskFilter_2_);}
	.st9{mask:url(#mask-6_1_);}
	.st10{fill-rule:evenodd;clip-rule:evenodd;fill:#D08B5B;}
	.st11{filter:url(#Adobe_OpacityMaskFilter_3_);}
	.st12{mask:url(#mask-6_2_);fill-rule:evenodd;clip-rule:evenodd;fill-opacity:0.1;}
	.st13{filter:url(#Adobe_OpacityMaskFilter_4_);}
	.st14{mask:url(#react-mask-742_1_);}
	.st15{fill-rule:evenodd;clip-rule:evenodd;fill:#262E33;}
	.st16{filter:url(#Adobe_OpacityMaskFilter_5_);}
	.st17{opacity:0.6;mask:url(#react-mask-742_2_);}
	.st18{fill-rule:evenodd;clip-rule:evenodd;fill-opacity:0.16;}
	.st19{fill-rule:evenodd;clip-rule:evenodd;fill-opacity:0.7;}
	.st20{filter:url(#Adobe_OpacityMaskFilter_6_);}
	.st21{mask:url(#react-mask-718_1_);fill-rule:evenodd;clip-rule:evenodd;fill:#FFFFFF;}
	.st22{filter:url(#Adobe_OpacityMaskFilter_7_);}
	.st23{mask:url(#react-mask-718_2_);}
	.st24{fill-rule:evenodd;clip-rule:evenodd;fill:#FF4F6D;}
	.st25{fill-rule:evenodd;clip-rule:evenodd;fill-opacity:0.6;}
	.st26{fill-opacity:0.6;}
	.st27{filter:url(#Adobe_OpacityMaskFilter_8_);}
	.st28{mask:url(#react-mask-884_1_);}
	.st29{fill-rule:evenodd;clip-rule:evenodd;fill:#28354B;}
	.st30{filter:url(#Adobe_OpacityMaskFilter_9_);}
	.st31{mask:url(#react-mask-885_1_);}
	.st32{fill-rule:evenodd;clip-rule:evenodd;fill:#2C1B18;}
	.st33{fill:#252C2F;}
</style>
<desc>Created with getavataaars.com</desc>
<g>
	<g transform="translate(-825.000000, -1100.000000)">
		<g transform="translate(825.000000, 1100.000000)">
			<g id="Circle" transform="translate(12.000000, 40.000000)">
				<g id="Circle-Background">
					<circle class="st0" cx="120" cy="120" r="120"/>
				</g>
				<defs>
					<filter id="Adobe_OpacityMaskFilter" filterUnits="userSpaceOnUse" x="0" y="0" width="240" height="240">
						<feColorMatrix  type="matrix" values="1 0 0 0 0  0 1 0 0 0  0 0 1 0 0  0 0 0 1 0"/>
					</filter>
				</defs>
				<mask maskUnits="userSpaceOnUse" x="0" y="0" width="240" height="240" id="mask-2_1_">
					<g class="st1">
						<circle id="path-1_1_" class="st2" cx="120" cy="120" r="120"/>
					</g>
				</mask>
				<g class="st3">
					<rect y="0" class="st4" width="240" height="240"/>
				</g>
			</g>
			<g id="Mask">
			</g>
			<defs>
				<filter id="Adobe_OpacityMaskFilter_1_" filterUnits="userSpaceOnUse" x="0" y="34" width="338" height="280">
					<feColorMatrix  type="matrix" values="1 0 0 0 0  0 1 0 0 0  0 0 1 0 0  0 0 0 1 0"/>
				</filter>
			</defs>
			<mask maskUnits="userSpaceOnUse" x="0" y="34" width="338" height="280" id="mask-4_1_">
				<g class="st5">
					<path id="path-3_1_" class="st2" d="M12,160c0,66.27,53.73,120,120,120s120-53.73,120-120h12V0H0v160H12z"/>
				</g>
			</mask>
			<g id="Avataaar" class="st6">
				<g id="Body" transform="translate(32.000000, 36.000000)">
					<g>
						<path class="st7" d="M124,144.61V163h4l0,0c39.76,0,72,32.24,72,72v9H0v-9c0-39.76,32.24-72,72-72l0,0h4v-18.39
							c-17.24-8.19-29.63-24.92-31.69-44.73C38.48,99.06,34,94.05,34,88V74c0-5.95,4.32-10.88,10-11.83V56l0,0
							c0-30.93,25.07-56,56-56l0,0l0,0c30.93,0,56,25.07,56,56v6.17c5.68,0.95,10,5.89,10,11.83v14c0,6.05-4.48,11.06-10.31,11.88
							C153.63,119.69,141.24,136.42,124,144.61z"/>
					</g>
					<defs>
						<filter id="Adobe_OpacityMaskFilter_2_" filterUnits="userSpaceOnUse" x="-32" y="0" width="264" height="244">
							<feColorMatrix  type="matrix" values="1 0 0 0 0  0 1 0 0 0  0 0 1 0 0  0 0 0 1 0"/>
						</filter>
					</defs>
					<mask maskUnits="userSpaceOnUse" x="-32" y="0" width="264" height="244" id="mask-6_1_">
						<g class="st8">
							<path id="path-5_1_" class="st2" d="M124,144.61V163h4l0,0c39.76,0,72,32.24,72,72v9H0v-9c0-39.76,32.24-72,72-72l0,0h4
								v-18.39c-17.24-8.19-29.63-24.92-31.69-44.73C38.48,99.06,34,94.05,34,88V74c0-5.95,4.32-10.88,10-11.83V56l0,0
								c0-30.93,25.07-56,56-56l0,0l0,0c30.93,0,56,25.07,56,56v6.17c5.68,0.95,10,5.89,10,11.83v14c0,6.05-4.48,11.06-10.31,11.88
								C153.63,119.69,141.24,136.42,124,144.61z"/>
						</g>
					</mask>
					<g class="st9">
						<g id="Color" transform="translate(-32.000000, 0.000000)">
							<rect y="0" class="st10" width="264" height="244"/>
						</g>
					</g>
					<defs>
						<filter id="Adobe_OpacityMaskFilter_3_" filterUnits="userSpaceOnUse" x="44" y="79" width="112" height="79">
							<feColorMatrix  type="matrix" values="1 0 0 0 0  0 1 0 0 0  0 0 1 0 0  0 0 0 1 0"/>
						</filter>
					</defs>
					<mask maskUnits="userSpaceOnUse" x="44" y="79" width="112" height="79" id="mask-6_2_">
						<g class="st11">
							<path id="path-5_2_" class="st2" d="M124,144.61V163h4l0,0c39.76,0,72,32.24,72,72v9H0v-9c0-39.76,32.24-72,72-72l0,0h4
								v-18.39c-17.24-8.19-29.63-24.92-31.69-44.73C38.48,99.06,34,94.05,34,88V74c0-5.95,4.32-10.88,10-11.83V56l0,0
								c0-30.93,25.07-56,56-56l0,0l0,0c30.93,0,56,25.07,56,56v6.17c5.68,0.95,10,5.89,10,11.83v14c0,6.05-4.48,11.06-10.31,11.88
								C153.63,119.69,141.24,136.42,124,144.61z"/>
						</g>
					</mask>
					<path id="Neck-Shadow" class="st12" d="M156,79v23c0,30.93-25.07,56-56,56s-56-25.07-56-56V79v15c0,30.93,25.07,56,56,56
						s56-25.07,56-56V79z"/>
				</g>
				<g transform="translate(0.000000, 170.000000)">
					<g id="Clothes">
						<path class="st0" d="M165.96,29.29c36.98,3.03,66.04,34,66.04,71.76V110H32v-8.95c0-38.1,29.59-69.29,67.05-71.83
							C99.02,29.59,99,29.97,99,30.35c0,11.86,15,21.48,33.5,21.48S166,42.21,166,30.35C166,29.99,165.99,29.64,165.96,29.29z"/>
					</g>
					<defs>
						<filter id="Adobe_OpacityMaskFilter_4_" filterUnits="userSpaceOnUse" x="0" y="0" width="264" height="110">
							<feColorMatrix  type="matrix" values="1 0 0 0 0  0 1 0 0 0  0 0 1 0 0  0 0 0 1 0"/>
						</filter>
					</defs>
					<mask maskUnits="userSpaceOnUse" x="0" y="0" width="264" height="110" id="react-mask-742_1_">
						<g class="st13">
							<path id="react-path-741_1_" class="st2" d="M165.96,29.29c36.98,3.03,66.04,34,66.04,71.76V110H32v-8.95
								c0-38.1,29.59-69.29,67.05-71.83C99.02,29.59,99,29.97,99,30.35c0,11.86,15,21.48,33.5,21.48S166,42.21,166,30.35
								C166,29.99,165.99,29.64,165.96,29.29z"/>
						</g>
					</mask>
					<g class="st14">
						<rect y="0" class="st15" width="264" height="110"/>
					</g>
					<defs>
						<filter id="Adobe_OpacityMaskFilter_5_" filterUnits="userSpaceOnUse" x="92.86" y="4.93" width="79.27" height="53.83">
							<feColorMatrix  type="matrix" values="1 0 0 0 0  0 1 0 0 0  0 0 1 0 0  0 0 0 1 0"/>
						</filter>
					</defs>
					<mask maskUnits="userSpaceOnUse" x="92.86" y="4.93" width="79.27" height="53.83" id="react-mask-742_2_">
						<g class="st16">
							<path id="react-path-741_2_" class="st2" d="M165.96,29.29c36.98,3.03,66.04,34,66.04,71.76V110H32v-8.95
								c0-38.1,29.59-69.29,67.05-71.83C99.02,29.59,99,29.97,99,30.35c0,11.86,15,21.48,33.5,21.48S166,42.21,166,30.35
								C166,29.99,165.99,29.64,165.96,29.29z"/>
						</g>
					</mask>
					<g id="Shadowy" class="st17">
						<g transform="translate(92.000000, 4.000000)">
							<ellipse class="st18" cx="40.5" cy="27.85" rx="39.64" ry="26.91"/>
						</g>
					</g>
				</g>
				<g id="Face" transform="translate(76.000000, 82.000000)">
					<g transform="translate(2.000000, 52.000000)">
						<g id="Mouth">
							<path class="st19" d="M35.12,15.13C36.18,24.62,44.23,32,54,32c9.8,0,17.87-7.43,18.89-16.96c0.08-0.77-0.78-2.04-1.85-2.04
								c-14.89,0-26.3,0-33.96,0C36.01,13,35.01,14.18,35.12,15.13z"/>
						</g>
						<defs>
							<filter id="Adobe_OpacityMaskFilter_6_" filterUnits="userSpaceOnUse" x="39" y="2" width="31" height="16">
								<feColorMatrix  type="matrix" values="1 0 0 0 0  0 1 0 0 0  0 0 1 0 0  0 0 0 1 0"/>
							</filter>
						</defs>
						<mask maskUnits="userSpaceOnUse" x="39" y="2" width="31" height="16" id="react-mask-718_1_">
							<g class="st20">
								<path id="react-path-717_1_" class="st2" d="M35.12,15.13C36.18,24.62,44.23,32,54,32c9.8,0,17.87-7.43,18.89-16.96
									c0.08-0.77-0.78-2.04-1.85-2.04c-14.89,0-26.3,0-33.96,0C36.01,13,35.01,14.18,35.12,15.13z"/>
							</g>
						</mask>
						<path id="Teeth" class="st21" d="M44,2h21c2.76,0,5,2.24,5,5v6c0,2.76-2.24,5-5,5H44c-2.76,0-5-2.24-5-5V7
							C39,4.24,41.24,2,44,2z"/>
						<defs>
							<filter id="Adobe_OpacityMaskFilter_7_" filterUnits="userSpaceOnUse" x="38" y="24" width="32" height="22">
								<feColorMatrix  type="matrix" values="1 0 0 0 0  0 1 0 0 0  0 0 1 0 0  0 0 0 1 0"/>
							</filter>
						</defs>
						<mask maskUnits="userSpaceOnUse" x="38" y="24" width="32" height="22" id="react-mask-718_2_">
							<g class="st22">
								<path id="react-path-717_2_" class="st2" d="M35.12,15.13C36.18,24.62,44.23,32,54,32c9.8,0,17.87-7.43,18.89-16.96
									c0.08-0.77-0.78-2.04-1.85-2.04c-14.89,0-26.3,0-33.96,0C36.01,13,35.01,14.18,35.12,15.13z"/>
							</g>
						</mask>
						<g id="Tongue" class="st23">
							<g transform="translate(38.000000, 24.000000)">
								<circle class="st24" cx="11" cy="11" r="11"/>
								<circle class="st24" cx="21" cy="11" r="11"/>
							</g>
						</g>
					</g>
					<g transform="translate(28.000000, 40.000000)">
						<path id="Nose" class="st18" d="M16,8c0,4.42,5.37,8,12,8l0,0c6.63,0,12-3.58,12-8"/>
					</g>
					<g transform="translate(0.000000, 8.000000)">
						<path id="Closed-Eye" class="st25" d="M16.16,27.55c1.85,3.8,6,6.45,10.84,6.45c4.82,0,8.96-2.63,10.82-6.41
							c0.55-1.12-0.23-2.04-1.02-1.36c-2.45,2.11-5.93,3.42-9.79,3.42c-3.74,0-7.12-1.23-9.56-3.23
							C16.55,25.7,15.62,26.44,16.16,27.55z"/>
						<path class="st25" d="M74.16,27.55c1.85,3.8,6,6.45,10.84,6.45c4.82,0,8.96-2.63,10.82-6.41c0.55-1.12-0.23-2.04-1.02-1.36
							c-2.45,2.11-5.93,3.42-9.79,3.42c-3.74,0-7.12-1.23-9.56-3.23C74.55,25.7,73.62,26.44,74.16,27.55z"/>
					</g>
					<g>
						<g id="I-Browse" transform="translate(12.000000, 6.000000)">
							<path id="Eyebrow" class="st26" d="M3.63,11.16c3.91-5.51,14.65-8.6,23.89-6.33c1.07,0.26,2.16-0.39,2.42-1.47
								c0.26-1.07-0.39-2.16-1.47-2.42C17.74-1.69,5.31,1.89,0.37,8.84c-0.64,0.9-0.43,2.15,0.47,2.79S2.99,12.06,3.63,11.16z"/>
							<path class="st26" d="M84.37,11.16c-3.91-5.51-14.65-8.6-23.89-6.33c-1.07,0.26-2.16-0.39-2.42-1.47s0.39-2.16,1.47-2.42
								c10.74-2.64,23.16,0.94,28.11,7.89c0.64,0.9,0.43,2.15-0.47,2.79S85.01,12.06,84.37,11.16z"/>
						</g>
					</g>
				</g>
				<g id="Top">
					<defs>
						<filter id="Adobe_OpacityMaskFilter_8_" filterUnits="userSpaceOnUse" x="67" y="34" width="271" height="280">
							<feColorMatrix  type="matrix" values="1 0 0 0 0  0 1 0 0 0  0 0 1 0 0  0 0 0 1 0"/>
						</filter>
					</defs>
					<mask maskUnits="userSpaceOnUse" x="67" y="34" width="271" height="280" id="react-mask-884_1_">
						<g class="st27">
							<rect id="react-path-886_1_" y="0" class="st2" width="264" height="280"/>
						</g>
					</mask>
					<g class="st28">
						<g transform="translate(-1.000000, 0.000000)">
							<g id="Hair" transform="translate(75.000000, 34.000000)">
								<g id="Caesar">
									<path class="st29" d="M1,64c0.35,1.49,1.67,1.22,2,0c-0.46-1.55,3.3-28.75,13-36c3.62-2.52,23.01-4.77,42.31-4.75
										C77.41,23.26,96.42,25.51,100,28c9.7,7.25,13.46,34.45,13,36c0.33,1.22,1.65,1.49,2,0c0.72-10.3,0-63.73-57-63
										S0.28,53.7,1,64z"/>
								</g>
								<defs>
									<filter id="Adobe_OpacityMaskFilter_9_" filterUnits="userSpaceOnUse" x="0" y="0" width="264" height="280">
										<feColorMatrix  type="matrix" values="1 0 0 0 0  0 1 0 0 0  0 0 1 0 0  0 0 0 1 0"/>
									</filter>
								</defs>
								<mask maskUnits="userSpaceOnUse" x="0" y="0" width="264" height="280" id="react-mask-885_1_">
									<g class="st30">
										<path id="react-path-887_1_" class="st2" d="M1,64c0.35,1.49,1.67,1.22,2,0c-0.46-1.55,3.3-28.75,13-36
											c3.62-2.52,23.01-4.77,42.31-4.75C77.41,23.26,96.42,25.51,100,28c9.7,7.25,13.46,34.45,13,36c0.33,1.22,1.65,1.49,2,0
											c0.72-10.3,0-63.73-57-63S0.28,53.7,1,64z"/>
									</g>
								</mask>
								<g class="st31">
									<g transform="translate(0.000000, 0.000000) ">
										<rect y="0" class="st32" width="264" height="280"/>
									</g>
								</g>
							</g>
							<g transform="translate(62.000000, 85.000000)">
								<g id="Wayfarers" transform="translate(6.000000, 7.000000)">
									<path id="Left" class="st33" d="M34,41h-2.76C17.31,41,9,33.34,9,20.5C9,10.13,10.82,0,32.53,0h2.94
										C57.18,0,59,10.13,59,20.5C59,32.57,48.72,41,34,41z M32.39,6C13,6,13,12.84,13,21.5C13,28.57,16.12,37,30.97,37H34
										c12.36,0,21-6.37,21-15.5C55,12.84,55,6,35.61,6H32.39z"/>
									<path id="Right" class="st33" d="M96,41h-2.76C79.31,41,71,33.34,71,20.5C71,10.13,72.82,0,94.53,0h2.94
										C119.18,0,121,10.13,121,20.5C121,32.57,110.72,41,96,41z M94.39,6C75,6,75,12.84,75,21.5C75,28.57,78.12,37,92.97,37H96
										c12.36,0,21-6.37,21-15.5C117,12.84,117,6,97.61,6H94.39z"/>
									<path id="Stuff" class="st33" d="M2.95,5.77C3.65,5.1,11.21,0,32.5,0c17.85,0,21.63,1.85,27.35,4.65l0.42,0.21
										c0.4,0.14,2.43,0.83,4.81,0.91c2.17-0.09,4.02-0.68,4.56-0.87C76.17,1.72,82.56,0,97.5,0c21.29,0,28.85,5.1,29.55,5.77
										c1.63,0,2.95,1.29,2.95,2.89v2.89c0,1.6-1.32,2.89-2.95,2.89c0,0-6.9,0-6.9,2.89s-1.96-4.18-1.96-5.77V8.73
										c-3.6-1.38-10.05-3.95-20.68-3.95c-11.84,0-17.74,2.1-22.8,4.18l0.06,0.14l0,1.99l-2.22,5.35l-2.74-1.08
										c-0.24-0.1-0.77-0.27-1.5-0.45c-2.04-0.5-4.14-0.66-5.99-0.28c-0.68,0.14-1.31,0.35-1.89,0.63l-2.64,1.29l-2.64-5.16
										l0.12-2.29l0.08-0.19c-4.36-2.03-8.39-4.12-22.82-4.12c-10.63,0-17.08,2.57-20.68,3.95v2.81c0,1.6-2.95,8.66-2.95,5.77
										s-5.91-2.89-5.91-2.89C1.32,14.43,0,13.14,0,11.54V8.66C0,7.06,1.32,5.77,2.95,5.77z"/>
								</g>
							</g>
						</g>
					</g>
				</g>
			</g>
		</g>
	</g>
</g>
</svg>
