<?xml version="1.0" encoding="utf-8"?>
<!-- Generator: Adobe Illustrator 23.0.0, SVG Export Plug-In . SVG Version: 6.00 Build 0)  -->
<svg version="1.1" id="Capa_1" xmlns="http://www.w3.org/2000/svg" xmlns:xlink="http://www.w3.org/1999/xlink" x="0px" y="0px"
	 viewBox="0 0 512 512" style="enable-background:new 0 0 512 512;" xml:space="preserve">
<style type="text/css">
	.st0{fill:#293D7C;}
	.st1{fill:#1A2B63;}
	.st2{fill:#445EA0;}
	.st3{fill:#2E4C89;}
	.st4{fill:#FFAF10;}
	.st5{fill:#FF9518;}
	.st6{fill:#D9EAFC;}
</style>
<g>
	<path class="st0" d="M351.41,412.01l40.46,0V343.8c0-1.01-2.6-1.84-5.77-1.84h-28.92c-3.17,0-5.77,0.83-5.77,1.84V412.01
		L351.41,412.01z"/>
	<path class="st1" d="M391.87,412.01v-7.15c0-1.01-2.6-1.84-5.77-1.84h-28.92c-3.17,0-5.77,0.83-5.77,1.84v7.15
		c2.58,2.01,9.45,6.78,19.26,7.07C381.64,419.42,389.38,413.95,391.87,412.01z"/>
</g>
<path class="st2" d="M441.55,334.99"/>
<path class="st0" d="M136.71,412.01l40.46,0V343.8c0-1.01-2.6-1.84-5.77-1.84h-28.92c-3.17,0-5.77,0.83-5.77,1.84V412.01
	L136.71,412.01z"/>
<path class="st1" d="M177.17,412.01v-7.15c0-1.01-2.6-1.84-5.77-1.84h-28.92c-3.17,0-5.77,0.83-5.77,1.84v7.15
	c2.58,2.01,9.45,6.78,19.26,7.07C166.94,419.42,174.68,413.95,177.17,412.01z"/>
<path class="st3" d="M99.84,284.44h316.87c6.07,0,11,4.92,11,11v56.46c0,6.07-4.92,11-11,11H99.84c-6.07,0-11-4.92-11-11v-56.46
	C88.84,289.36,93.76,284.44,99.84,284.44z"/>
<path class="st2" d="M99.84,203.85h316.87c6.07,0,11,4.92,11,11v56.46c0,6.07-4.92,11-11,11H99.84c-6.07,0-11-4.92-11-11v-56.46
	C88.84,208.78,93.76,203.85,99.84,203.85z"/>
<path class="st3" d="M99.84,123.27h316.87c6.07,0,11,4.92,11,11v56.46c0,6.07-4.92,11-11,11H99.84c-6.07,0-11-4.92-11-11v-56.46
	C88.84,128.19,93.76,123.27,99.84,123.27z"/>
<path class="st4" d="M155.38,162.69c0,14.48-10.66,26.22-23.83,26.22c-1,0-2.01-0.08-2.98-0.21c-11.77-1.6-20.85-12.64-20.85-26.01
	c0-13.36,9.09-24.4,20.85-25.99c0.97-0.13,1.97-0.21,2.98-0.21C144.72,136.49,155.38,148.23,155.38,162.69z"/>
<ellipse class="st4" cx="131.55" cy="243.08" rx="23.84" ry="26.21"/>
<ellipse class="st4" cx="131.55" cy="323.66" rx="23.84" ry="26.21"/>
<path class="st5" d="M128.57,136.7v52.01c-11.77-1.6-20.85-12.64-20.85-26.01C107.72,149.33,116.81,138.29,128.57,136.7z"/>
<path class="st5" d="M128.57,217.08v52.01c-11.77-1.6-20.85-12.64-20.85-26.01C107.72,229.71,116.81,218.67,128.57,217.08z"/>
<path class="st5" d="M128.57,297.46v52.01c-11.77-1.6-20.85-12.64-20.85-26.01C107.72,310.09,116.81,299.06,128.57,297.46z"/>
<g>
	<ellipse class="st6" cx="342.39" cy="255.02" rx="6.2" ry="6.61"/>
	<ellipse class="st6" cx="361.33" cy="255.02" rx="6.2" ry="6.61"/>
	<ellipse class="st6" cx="380.27" cy="255.02" rx="6.2" ry="6.61"/>
	<ellipse class="st6" cx="399.21" cy="255.02" rx="6.2" ry="6.61"/>
	<ellipse class="st6" cx="323.45" cy="255.02" rx="6.2" ry="6.61"/>
	<ellipse class="st6" cx="351.41" cy="237.35" rx="6.2" ry="6.61"/>
	<ellipse class="st6" cx="370.35" cy="237.35" rx="6.2" ry="6.61"/>
	<ellipse class="st6" cx="389.29" cy="237.35" rx="6.2" ry="6.61"/>
	<ellipse class="st6" cx="408.23" cy="237.35" rx="6.2" ry="6.61"/>
	<ellipse class="st6" cx="332.47" cy="237.35" rx="6.2" ry="6.61"/>
</g>
<g>
	<ellipse class="st6" cx="342.39" cy="176.02" rx="6.2" ry="6.61"/>
	<ellipse class="st6" cx="361.33" cy="176.02" rx="6.2" ry="6.61"/>
	<ellipse class="st6" cx="380.27" cy="176.02" rx="6.2" ry="6.61"/>
	<ellipse class="st6" cx="399.21" cy="176.02" rx="6.2" ry="6.61"/>
	<ellipse class="st6" cx="323.45" cy="176.02" rx="6.2" ry="6.61"/>
	<ellipse class="st6" cx="351.41" cy="158.35" rx="6.2" ry="6.61"/>
	<ellipse class="st6" cx="370.35" cy="158.35" rx="6.2" ry="6.61"/>
	<ellipse class="st6" cx="389.29" cy="158.35" rx="6.2" ry="6.61"/>
	<ellipse class="st6" cx="408.23" cy="158.35" rx="6.2" ry="6.61"/>
	<ellipse class="st6" cx="332.47" cy="158.35" rx="6.2" ry="6.61"/>
</g>
<g>
	<ellipse class="st6" cx="342.39" cy="334.03" rx="6.2" ry="6.61"/>
	<ellipse class="st6" cx="361.33" cy="334.03" rx="6.2" ry="6.61"/>
	<ellipse class="st6" cx="380.27" cy="334.03" rx="6.2" ry="6.61"/>
	<ellipse class="st6" cx="399.21" cy="334.03" rx="6.2" ry="6.61"/>
	<ellipse class="st6" cx="323.45" cy="334.03" rx="6.2" ry="6.61"/>
	<ellipse class="st6" cx="351.41" cy="316.35" rx="6.2" ry="6.61"/>
	<ellipse class="st6" cx="370.35" cy="316.35" rx="6.2" ry="6.61"/>
	<ellipse class="st6" cx="389.29" cy="316.35" rx="6.2" ry="6.61"/>
	<ellipse class="st6" cx="408.23" cy="316.35" rx="6.2" ry="6.61"/>
	<ellipse class="st6" cx="332.47" cy="316.35" rx="6.2" ry="6.61"/>
</g>
</svg>
